<svg xmlns="http://www.w3.org/2000/svg" xmlns:xlink="http://www.w3.org/1999/xlink" version="1.1" width="1000" height="1000" viewBox="0 0 1000 1000" xml:space="preserve">
<desc>Created with Fabric.js 3.5.0</desc>
<defs>
</defs>
<rect x="0" y="0" width="100%" height="100%" fill="rgba(255,255,255,0)"/>
<g transform="matrix(0.9091 0 0 0.9091 90.9095 90.9095)" id="721979">
<rect style="stroke: none; stroke-width: 1; stroke-dasharray: none; stroke-linecap: butt; stroke-dashoffset: 0; stroke-linejoin: miter; stroke-miterlimit: 4; is-custom-font: none; font-file-url: none; fill: rgb(255,0,0); fill-opacity: 0; fill-rule: nonzero; opacity: 1;" x="-50" y="-50" rx="0" ry="0" width="100" height="100"/>
</g>
<g transform="matrix(3.5375 0 0 3.5375 501.3087 390.6736)" id="971273">
<path style="stroke: none; stroke-width: 0; stroke-dasharray: none; stroke-linecap: butt; stroke-dashoffset: 0; stroke-linejoin: miter; stroke-miterlimit: 4; is-custom-font: none; font-file-url: none; fill: rgb(170,169,173); fill-rule: nonzero; opacity: 1;" transform=" translate(-50, -46.7692)" d="M 95 8.539 L 53 22.986 V 73.27 c -1.832 -0.864 -4.27 -1.001 -6.694 -0.193 c -4.192 1.397 -6.74 5.078 -5.692 8.222 s 5.295 4.559 9.487 3.162 c 3.742 -1.247 6.166 -4.314 5.899 -7.195 V 32 l 36 -12.397 v 32.681 c -1.835 -0.876 -4.286 -1.019 -6.722 -0.207 c -4.192 1.397 -6.74 5.078 -5.692 8.222 s 5.295 4.559 9.487 3.162 c 3.525 -1.175 5.878 -3.965 5.918 -6.692 H 95 V 8.539 z M 19 9 v 43 c -1.869 -0.892 -4.481 -0.971 -6.963 -0.143 c -4.269 1.423 -6.865 5.172 -5.798 8.374 s 5.393 4.644 9.663 3.221 c 3.59 -1.197 6.047 -4.038 6.087 -6.816 H 22 V 23 s 12.926 3.741 17 18 c 0 -16.296 -14 -19 -20 -32 z m 18.423 70 H 2 v 2 h 35.476 a 7.75 7.75 0 0 1 -0.053 -2 z M 98 81 v -2 H 58.9 a 8.66 8.66 0 0 1 -0.591 2 H 98 z M 5.078 64 H 2 v 2 h 5.87 c -1.081 -0.501 -2.028 -1.176 -2.792 -2 z M 98 66 v -2 h -3.769 c -0.978 0.804 -2.112 1.487 -3.377 2 H 98 z m -19.599 -2 H 59 v 2 h 22.155 a 8.74 8.74 0 0 1 -2.754 -2 z M 21.09 64 a 13.4 13.4 0 0 1 -3.433 2 H 50 v -2 H 21.09 z M 25 49 h 25 v 2 H 25 z m -13.875 0 H 2 v 2 h 5.25 c 1.106 -0.825 2.395 -1.508 3.839 -1.99 c 0.012 -0.004 0.024 -0.006 0.036 -0.01 z M 59 51 h 21.822 a 13.5 13.5 0 0 1 3.507 -1.769 l 0.796 -0.231 H 59 v 2 z M 32.25 34 H 25 v 2 h 8.595 c -0.427 -0.712 -0.877 -1.378 -1.345 -2 z M 2 34 h 14 v 2 H 2 z m 57 2 h 30 v -2 H 59.406 l -0.406 0.14 z m -17.449 0 H 50 v -2 h -8.898 l 0.449 2 z m -8.817 -15 h 18.028 a 2.99 2.99 0 0 1 1.263 -0.851 L 55.366 19 h -24.68 l 2.048 2 z M 2 19 h 14 v 2 H 2 z" stroke-linecap="round"/>
</g>
<g transform="matrix(0.9091 0 0 0.9091 503.8755 644.544)" id="145852">
<path style="stroke: none; stroke-width: 0; stroke-dasharray: none; stroke-linecap: butt; stroke-dashoffset: 0; stroke-linejoin: miter; stroke-miterlimit: 4; is-custom-font: none; font-file-url: none; fill: rgb(170,169,173); fill-rule: nonzero; opacity: 1;" transform=" translate(-4.26, -2.93)" d="M -255.03 -50.53 L -234.87 -54.08 L -236.86 7.69 L -235.15 44.61 L -255.03 44.61 L -253.33 10.1 L -253.61 2.58 L -291.81 2.58 L -291.95 7.69 L -290.25 44.61 L -310.13 44.61 L -308.42 10.1 L -310.13 -50.53 L -289.96 -54.08 L -291.38 -12.48 L -254.04 -12.48 L -255.03 -50.53 Z M -189.71 30.12 L -189.71 30.12 Q -185.59 30.12 -181.05 27.99 Q -176.51 25.86 -173.95 23.73 L -173.95 23.73 L -171.39 21.6 L -164.86 29.56 Q -166.28 31.97 -169.26 35.09 Q -172.25 38.22 -175.3 40.42 Q -178.35 42.62 -183.39 44.39 Q -188.43 46.17 -193.83 46.17 L -193.83 46.17 Q -205.33 46.17 -212.57 37.44 Q -219.82 28.7 -219.82 14.93 L -219.82 14.93 Q -219.82 -2.39 -209.73 -15.46 Q -199.65 -28.52 -186.16 -28.52 L -186.16 -28.52 Q -175.8 -28.52 -170.04 -22.7 Q -164.29 -16.88 -164.29 -6.37 L -164.29 -6.37 Q -164.29 -0.12 -166.42 7.83 L -166.42 7.83 L -169.26 10.81 L -204.76 14.08 Q -202.35 30.12 -189.71 30.12 Z M -189.71 -13.9 L -189.71 -13.9 Q -195.96 -13.9 -200.22 -8.86 Q -204.48 -3.81 -205.19 4 L -205.19 4 L -181.05 1.01 Q -180.62 -2.25 -180.62 -4.38 L -180.62 -4.38 Q -180.62 -13.9 -189.71 -13.9 Z M -137.74 44.61 Q -146.12 44.61 -151.44 39.28 Q -156.77 33.96 -156.77 24.94 Q -156.77 15.92 -148.53 9.32 Q -140.3 2.72 -128.51 2.72 L -128.51 2.72 L -118.85 2.72 L -118.85 0.3 Q -118.85 -6.65 -121.69 -9.21 Q -124.53 -11.77 -132.34 -11.77 L -132.34 -11.77 Q -135.61 -11.77 -140.08 -10.42 Q -144.56 -9.07 -150.09 -6.23 L -150.09 -6.23 L -154.21 -17.45 Q -148.11 -21.71 -139.37 -25.11 Q -130.64 -28.52 -124.96 -28.52 L -124.96 -28.52 Q -102.67 -28.52 -102.67 -6.94 L -102.67 -6.94 L -102.67 20.89 Q -102.67 28.85 -97.7 38.64 L -97.7 38.64 L -112.75 45.03 Q -116.3 38.22 -118 32.82 L -118 32.82 Q -125.81 44.61 -137.74 44.61 L -137.74 44.61 Z M -131.78 30.12 L -131.78 30.12 Q -126.1 30.12 -118.85 24.3 L -118.85 24.3 L -118.85 14.79 Q -126.38 13.08 -131.07 13.08 L -131.07 13.08 Q -140.01 13.08 -140.01 21.04 L -140.01 21.04 Q -140.01 25.15 -137.74 27.64 Q -135.47 30.12 -131.78 30.12 Z M -86.9 -23.98 L -86.9 -23.98 L -69.72 -27.67 Q -68.44 -16.74 -68.02 -6.94 L -68.02 -6.94 Q -55.1 -26.96 -43.74 -26.96 L -43.74 -26.96 L -45.3 -4.81 Q -53.53 -4.81 -58.29 -3.32 Q -63.05 -1.83 -68.02 2.58 L -68.02 2.58 L -68.02 7.69 L -66.46 41.06 L -85.48 44.61 L -83.78 10.1 Q -84.35 -8.93 -86.9 -23.98 Z M -19.6 35.09 L -19.6 35.09 Q -19.6 47.16 -37.2 60.65 L -37.2 60.65 L -43.03 56.39 Q -34.65 46.6 -34.65 39.5 L -34.65 39.5 Q -34.65 35.09 -38.34 28.28 L -38.34 28.28 L -24.42 22.74 Q -19.6 28.85 -19.6 35.09 Z M 74.41 -50.53 L 94.57 -54.08 L 92.58 7.69 L 94.29 44.61 L 74.41 44.61 L 76.11 10.1 L 75.83 2.58 L 37.63 2.58 L 37.49 7.69 L 39.19 44.61 L 19.31 44.61 L 21.02 10.1 L 19.31 -50.53 L 39.48 -54.08 L 38.06 -12.48 L 75.4 -12.48 L 74.41 -50.53 Z M 139.73 30.12 L 139.73 30.12 Q 143.85 30.12 148.39 27.99 Q 152.93 25.86 155.49 23.73 L 155.49 23.73 L 158.05 21.6 L 164.58 29.56 Q 163.16 31.97 160.18 35.09 Q 157.19 38.22 154.14 40.42 Q 151.09 42.62 146.05 44.39 Q 141.01 46.17 135.61 46.17 L 135.61 46.17 Q 124.11 46.17 116.87 37.44 Q 109.62 28.7 109.62 14.93 L 109.62 14.93 Q 109.62 -2.39 119.71 -15.46 Q 129.79 -28.52 143.28 -28.52 L 143.28 -28.52 Q 153.64 -28.52 159.4 -22.7 Q 165.15 -16.88 165.15 -6.37 L 165.15 -6.37 Q 165.15 -0.12 163.02 7.83 L 163.02 7.83 L 160.18 10.81 L 124.68 14.08 Q 127.09 30.12 139.73 30.12 Z M 139.73 -13.9 L 139.73 -13.9 Q 133.48 -13.9 129.22 -8.86 Q 124.96 -3.81 124.25 4 L 124.25 4 L 148.39 1.01 Q 148.82 -2.25 148.82 -4.38 L 148.82 -4.38 Q 148.82 -13.9 139.73 -13.9 Z M 191.7 44.61 Q 183.32 44.61 178 39.28 Q 172.67 33.96 172.67 24.94 Q 172.67 15.92 180.91 9.32 Q 189.14 2.72 200.93 2.72 L 200.93 2.72 L 210.59 2.72 L 210.59 0.3 Q 210.59 -6.65 207.75 -9.21 Q 204.91 -11.77 197.1 -11.77 L 197.1 -11.77 Q 193.83 -11.77 189.36 -10.42 Q 184.88 -9.07 179.35 -6.23 L 179.35 -6.23 L 175.23 -17.45 Q 181.33 -21.71 190.07 -25.11 Q 198.8 -28.52 204.48 -28.52 L 204.48 -28.52 Q 226.77 -28.52 226.77 -6.94 L 226.77 -6.94 L 226.77 20.89 Q 226.77 28.85 231.74 38.64 L 231.74 38.64 L 216.69 45.03 Q 213.14 38.22 211.44 32.82 L 211.44 32.82 Q 203.63 44.61 191.7 44.61 L 191.7 44.61 Z M 197.66 30.12 L 197.66 30.12 Q 203.34 30.12 210.59 24.3 L 210.59 24.3 L 210.59 14.79 Q 203.06 13.08 198.37 13.08 L 198.37 13.08 Q 189.43 13.08 189.43 21.04 L 189.43 21.04 Q 189.43 25.15 191.7 27.64 Q 193.97 30.12 197.66 30.12 Z M 242.54 -23.98 L 242.54 -23.98 L 259.72 -27.67 Q 261 -16.74 261.42 -6.94 L 261.42 -6.94 Q 274.34 -26.96 285.7 -26.96 L 285.7 -26.96 L 284.14 -4.81 Q 275.91 -4.81 271.15 -3.32 Q 266.39 -1.83 261.42 2.58 L 261.42 2.58 L 261.42 7.69 L 262.98 41.06 L 243.96 44.61 L 245.66 10.1 Q 245.09 -8.93 242.54 -23.98 Z M 292.09 35.31 Q 292.09 30.55 295.5 27.07 Q 298.91 23.59 303.45 23.59 Q 308 23.59 310.34 26.08 Q 312.68 28.56 312.68 33.39 Q 312.68 38.22 309.42 41.84 Q 306.15 45.46 301.68 45.46 Q 297.21 45.46 294.65 42.76 Q 292.09 40.06 292.09 35.31 Z M 297.21 -51.24 L 318.65 -54.79 L 310.7 8.11 L 297.21 10.1 L 297.21 -51.24 Z" stroke-linecap="round"/>
</g>
</svg>