<svg xmlns="http://www.w3.org/2000/svg" xmlns:xlink="http://www.w3.org/1999/xlink" version="1.1" width="1000" height="1000" viewBox="0 0 1000 1000" xml:space="preserve">
<desc>Created with Fabric.js 3.5.0</desc>
<defs>
</defs>
<rect x="0" y="0" width="100%" height="100%" fill="rgba(255,0,0,0)"/>
<g transform="matrix(3.8913 0 0 3.8913 501.442 379.7428)" id="971273">
<filter id="SVGID_4" y="-46.16%" height="192.32%" x="-40.83%" width="181.66%">
	<feGaussianBlur in="SourceAlpha" stdDeviation="5"/>
	<feOffset dx="10" dy="10" result="oBlur"/>
	<feFlood flood-color="rgb(0,0,0)" flood-opacity="1"/>
	<feComposite in2="oBlur" operator="in"/>
	<feMerge>
		<feMergeNode/>
		<feMergeNode in="SourceGraphic"/>
	</feMerge>
</filter>
<path style="stroke: none; stroke-width: 0; stroke-dasharray: none; stroke-linecap: butt; stroke-dashoffset: 0; stroke-linejoin: miter; stroke-miterlimit: 4; is-custom-font: none; font-file-url: none; fill: rgb(228,195,84); fill-rule: nonzero; opacity: 1;filter: url(#SVGID_4);" transform=" translate(-50, -46.7692)" d="M 95 8.539 L 53 22.986 V 73.27 c -1.832 -0.864 -4.27 -1.001 -6.694 -0.193 c -4.192 1.397 -6.74 5.078 -5.692 8.222 s 5.295 4.559 9.487 3.162 c 3.742 -1.247 6.166 -4.314 5.899 -7.195 V 32 l 36 -12.397 v 32.681 c -1.835 -0.876 -4.286 -1.019 -6.722 -0.207 c -4.192 1.397 -6.74 5.078 -5.692 8.222 s 5.295 4.559 9.487 3.162 c 3.525 -1.175 5.878 -3.965 5.918 -6.692 H 95 V 8.539 z M 19 9 v 43 c -1.869 -0.892 -4.481 -0.971 -6.963 -0.143 c -4.269 1.423 -6.865 5.172 -5.798 8.374 s 5.393 4.644 9.663 3.221 c 3.59 -1.197 6.047 -4.038 6.087 -6.816 H 22 V 23 s 12.926 3.741 17 18 c 0 -16.296 -14 -19 -20 -32 z m 18.423 70 H 2 v 2 h 35.476 a 7.75 7.75 0 0 1 -0.053 -2 z M 98 81 v -2 H 58.9 a 8.66 8.66 0 0 1 -0.591 2 H 98 z M 5.078 64 H 2 v 2 h 5.87 c -1.081 -0.501 -2.028 -1.176 -2.792 -2 z M 98 66 v -2 h -3.769 c -0.978 0.804 -2.112 1.487 -3.377 2 H 98 z m -19.599 -2 H 59 v 2 h 22.155 a 8.74 8.74 0 0 1 -2.754 -2 z M 21.09 64 a 13.4 13.4 0 0 1 -3.433 2 H 50 v -2 H 21.09 z M 25 49 h 25 v 2 H 25 z m -13.875 0 H 2 v 2 h 5.25 c 1.106 -0.825 2.395 -1.508 3.839 -1.99 c 0.012 -0.004 0.024 -0.006 0.036 -0.01 z M 59 51 h 21.822 a 13.5 13.5 0 0 1 3.507 -1.769 l 0.796 -0.231 H 59 v 2 z M 32.25 34 H 25 v 2 h 8.595 c -0.427 -0.712 -0.877 -1.378 -1.345 -2 z M 2 34 h 14 v 2 H 2 z m 57 2 h 30 v -2 H 59.406 l -0.406 0.14 z m -17.449 0 H 50 v -2 h -8.898 l 0.449 2 z m -8.817 -15 h 18.028 a 2.99 2.99 0 0 1 1.263 -0.851 L 55.366 19 h -24.68 l 2.048 2 z M 2 19 h 14 v 2 H 2 z" stroke-linecap="round"/>
</g>
<g transform="matrix(1 0 0 1 500 656.0678)" style="filter: url(#SVGID_5);" id="145852">
<filter id="SVGID_5" y="-32.46%" height="164.92000000000002%" x="-22%" width="144%">
	<feGaussianBlur in="SourceAlpha" stdDeviation="5"/>
	<feOffset dx="10" dy="10" result="oBlur"/>
	<feFlood flood-color="rgb(0,0,0)" flood-opacity="1"/>
	<feComposite in2="oBlur" operator="in"/>
	<feMerge>
		<feMergeNode/>
		<feMergeNode in="SourceGraphic"/>
	</feMerge>
</filter>
		
<path xml:space="preserve" font-family="Acme" font-size="142" font-weight="normal" style="stroke: none; stroke-width: 0; stroke-dasharray: none; stroke-linecap: butt; stroke-dashoffset: 0; stroke-linejoin: miter; stroke-miterlimit: 4; is-custom-font: none; font-file-url: none; fill: rgb(228,195,84); fill-rule: nonzero; opacity: 1; white-space: pre;" d="M-255.03-50.53L-234.87-54.08L-236.86 7.69L-235.15 44.61L-255.03 44.61L-253.33 10.10L-253.61 2.58L-291.81 2.58L-291.95 7.69L-290.25 44.61L-310.13 44.61L-308.42 10.10L-310.13-50.53L-289.96-54.08L-291.38-12.48L-254.04-12.48L-255.03-50.53ZM-189.71 30.12L-189.71 30.12Q-185.59 30.12-181.05 27.99Q-176.51 25.86-173.95 23.73L-173.95 23.73L-171.39 21.60L-164.86 29.56Q-166.28 31.97-169.26 35.09Q-172.25 38.22-175.30 40.42Q-178.35 42.62-183.39 44.39Q-188.43 46.17-193.83 46.17L-193.83 46.17Q-205.33 46.17-212.57 37.44Q-219.82 28.70-219.82 14.93L-219.82 14.93Q-219.82-2.39-209.73-15.46Q-199.65-28.52-186.16-28.52L-186.16-28.52Q-175.80-28.52-170.04-22.70Q-164.29-16.88-164.29-6.37L-164.29-6.37Q-164.29-0.12-166.42 7.83L-166.42 7.83L-169.26 10.81L-204.76 14.08Q-202.35 30.12-189.71 30.12ZM-189.71-13.90L-189.71-13.90Q-195.96-13.90-200.22-8.86Q-204.48-3.81-205.19 4.00L-205.19 4.00L-181.05 1.01Q-180.62-2.25-180.62-4.38L-180.62-4.38Q-180.62-13.90-189.71-13.90ZM-137.74 44.61Q-146.12 44.61-151.44 39.28Q-156.77 33.96-156.77 24.94Q-156.77 15.92-148.53 9.32Q-140.30 2.72-128.51 2.72L-128.51 2.72L-118.85 2.72L-118.85 0.30Q-118.85-6.65-121.69-9.21Q-124.53-11.77-132.34-11.77L-132.34-11.77Q-135.61-11.77-140.08-10.42Q-144.56-9.07-150.09-6.23L-150.09-6.23L-154.21-17.45Q-148.11-21.71-139.37-25.11Q-130.64-28.52-124.96-28.52L-124.96-28.52Q-102.67-28.52-102.67-6.94L-102.67-6.94L-102.67 20.89Q-102.67 28.85-97.70 38.64L-97.70 38.64L-112.75 45.03Q-116.30 38.22-118.00 32.82L-118.00 32.82Q-125.81 44.61-137.74 44.61L-137.74 44.61ZM-131.78 30.12L-131.78 30.12Q-126.10 30.12-118.85 24.30L-118.85 24.30L-118.85 14.79Q-126.38 13.08-131.07 13.08L-131.07 13.08Q-140.01 13.08-140.01 21.04L-140.01 21.04Q-140.01 25.15-137.74 27.64Q-135.47 30.12-131.78 30.12ZM-86.90-23.98L-86.90-23.98L-69.72-27.67Q-68.44-16.74-68.02-6.94L-68.02-6.94Q-55.10-26.96-43.74-26.96L-43.74-26.96L-45.30-4.81Q-53.53-4.81-58.29-3.32Q-63.05-1.83-68.02 2.58L-68.02 2.58L-68.02 7.69L-66.46 41.06L-85.48 44.61L-83.78 10.10Q-84.35-8.93-86.90-23.98ZM-19.60 35.09L-19.60 35.09Q-19.60 47.16-37.20 60.65L-37.20 60.65L-43.03 56.39Q-34.65 46.60-34.65 39.50L-34.65 39.50Q-34.65 35.09-38.34 28.28L-38.34 28.28L-24.42 22.74Q-19.60 28.85-19.60 35.09ZM74.41-50.53L94.57-54.08L92.58 7.69L94.29 44.61L74.41 44.61L76.11 10.10L75.83 2.58L37.63 2.58L37.49 7.69L39.19 44.61L19.31 44.61L21.02 10.10L19.31-50.53L39.48-54.08L38.06-12.48L75.40-12.48L74.41-50.53ZM139.73 30.12L139.73 30.12Q143.85 30.12 148.39 27.99Q152.93 25.86 155.49 23.73L155.49 23.73L158.05 21.60L164.58 29.56Q163.16 31.97 160.18 35.09Q157.19 38.22 154.14 40.42Q151.09 42.62 146.05 44.39Q141.01 46.17 135.61 46.17L135.61 46.17Q124.11 46.17 116.87 37.44Q109.62 28.70 109.62 14.93L109.62 14.93Q109.62-2.39 119.71-15.46Q129.79-28.52 143.28-28.52L143.28-28.52Q153.64-28.52 159.40-22.70Q165.15-16.88 165.15-6.37L165.15-6.37Q165.15-0.12 163.02 7.83L163.02 7.83L160.18 10.81L124.68 14.08Q127.09 30.12 139.73 30.12ZM139.73-13.90L139.73-13.90Q133.48-13.90 129.22-8.86Q124.96-3.81 124.25 4.00L124.25 4.00L148.39 1.01Q148.82-2.25 148.82-4.38L148.82-4.38Q148.82-13.90 139.73-13.90ZM191.70 44.61Q183.32 44.61 178.00 39.28Q172.67 33.96 172.67 24.94Q172.67 15.92 180.91 9.32Q189.14 2.72 200.93 2.72L200.93 2.72L210.59 2.72L210.59 0.30Q210.59-6.65 207.75-9.21Q204.91-11.77 197.10-11.77L197.10-11.77Q193.83-11.77 189.36-10.42Q184.88-9.07 179.35-6.23L179.35-6.23L175.23-17.45Q181.33-21.71 190.07-25.11Q198.80-28.52 204.48-28.52L204.48-28.52Q226.77-28.52 226.77-6.94L226.77-6.94L226.77 20.89Q226.77 28.85 231.74 38.64L231.74 38.64L216.69 45.03Q213.14 38.22 211.44 32.82L211.44 32.82Q203.63 44.61 191.70 44.61L191.70 44.61ZM197.66 30.12L197.66 30.12Q203.34 30.12 210.59 24.30L210.59 24.30L210.59 14.79Q203.06 13.08 198.37 13.08L198.37 13.08Q189.43 13.08 189.43 21.04L189.43 21.04Q189.43 25.15 191.70 27.64Q193.97 30.12 197.66 30.12ZM242.54-23.98L242.54-23.98L259.72-27.67Q261.00-16.74 261.42-6.94L261.42-6.94Q274.34-26.96 285.70-26.96L285.70-26.96L284.14-4.81Q275.91-4.81 271.15-3.32Q266.39-1.83 261.42 2.58L261.42 2.58L261.42 7.69L262.98 41.06L243.96 44.61L245.66 10.10Q245.09-8.93 242.54-23.98ZM292.09 35.31Q292.09 30.55 295.50 27.07Q298.91 23.59 303.45 23.59Q308.00 23.59 310.34 26.08Q312.68 28.56 312.68 33.39Q312.68 38.22 309.42 41.84Q306.15 45.46 301.68 45.46Q297.21 45.46 294.65 42.76Q292.09 40.06 292.09 35.31ZM297.21-51.24L318.65-54.79L310.70 8.11L297.21 10.10L297.21-51.24Z"/></g>
</svg>